# xmcd
#
# Track frame offsets:
#	1097
#	12756
#	26374
#	39704
#	55163
#	68662
#	79987
#	90413
#	104023
#	118375
#	131403
#
# Disc length: 1863 seconds
#
# Revision: 1
# Processed by: cddbd v1.5.2PL0 Copyright (c) Steve Scherf et al.
# Submitted via: audiograbber 1.83.01
#
DISCID=8f07390b
DTITLE=Carey Kotsionis - Battle Songs
DYEAR=2010
DGENRE=Americana
TTITLE0=Little Box of Matches
TTITLE1=Battle Song
TTITLE2=The One I Love
TTITLE3=Tug Boat Man
TTITLE4=Love Will Always Give Itself Away
TTITLE5=Green as Ivy
TTITLE6=Tightrope
TTITLE7=You Don't Know Me
TTITLE8=Blue Star in the Blue Sky
TTITLE9=The Gypsy Out of Me
TTITLE10=Out of My Dreams
EXTD=
EXTT0=
EXTT1=
EXTT2=
EXTT3=
EXTT4=
EXTT5=
EXTT6=
EXTT7=
EXTT8=
EXTT9=
EXTT10=
PLAYORDER=
